<mxfile host="app.diagrams.net" modified="2023-04-24T10:50:47.975Z" agent="Mozilla/5.0 (Macintosh; Intel Mac OS X 10.15; rv:109.0) Gecko/20100101 Firefox/112.0" etag="cpHJbQ6PDpdtw0JFt-HZ" version="21.2.1" type="github">
  <diagram name="Page-1" id="JnQKtIjUjuUfpUsb1rrf">
    <mxGraphModel dx="1804" dy="617" grid="1" gridSize="11" guides="1" tooltips="1" connect="1" arrows="1" fold="1" page="1" pageScale="1" pageWidth="850" pageHeight="1100" math="0" shadow="0">
      <root>
        <mxCell id="0" />
        <mxCell id="1" parent="0" />
        <mxCell id="O6MyGIacQPo4iYBTRoAR-7" style="edgeStyle=orthogonalEdgeStyle;rounded=0;orthogonalLoop=1;jettySize=auto;html=1;entryX=0;entryY=0.5;entryDx=0;entryDy=0;labelBackgroundColor=none;strokeColor=#23445D;fontColor=default;strokeWidth=3;" parent="1" source="O6MyGIacQPo4iYBTRoAR-2" target="O6MyGIacQPo4iYBTRoAR-5" edge="1">
          <mxGeometry relative="1" as="geometry" />
        </mxCell>
        <mxCell id="O6MyGIacQPo4iYBTRoAR-8" style="edgeStyle=orthogonalEdgeStyle;orthogonalLoop=1;jettySize=auto;html=1;entryX=0;entryY=0.5;entryDx=0;entryDy=0;labelBackgroundColor=none;strokeColor=#23445D;fontColor=default;rounded=1;strokeWidth=3;" parent="1" source="O6MyGIacQPo4iYBTRoAR-2" target="O6MyGIacQPo4iYBTRoAR-4" edge="1">
          <mxGeometry relative="1" as="geometry" />
        </mxCell>
        <mxCell id="O6MyGIacQPo4iYBTRoAR-9" style="edgeStyle=orthogonalEdgeStyle;rounded=1;orthogonalLoop=1;jettySize=auto;html=1;entryX=0;entryY=0.5;entryDx=0;entryDy=0;labelBackgroundColor=none;strokeColor=#23445D;fontColor=default;strokeWidth=4;" parent="1" source="O6MyGIacQPo4iYBTRoAR-2" target="O6MyGIacQPo4iYBTRoAR-6" edge="1">
          <mxGeometry relative="1" as="geometry" />
        </mxCell>
        <mxCell id="O6MyGIacQPo4iYBTRoAR-14" style="edgeStyle=orthogonalEdgeStyle;rounded=0;orthogonalLoop=1;jettySize=auto;html=1;labelBackgroundColor=none;strokeColor=#23445D;fontColor=default;strokeWidth=3;" parent="1" source="O6MyGIacQPo4iYBTRoAR-2" target="O6MyGIacQPo4iYBTRoAR-10" edge="1">
          <mxGeometry relative="1" as="geometry" />
        </mxCell>
        <mxCell id="O6MyGIacQPo4iYBTRoAR-2" value="Gateway" style="rounded=1;whiteSpace=wrap;html=1;fillColor=#182E3E;strokeColor=#FFFFFF;labelBackgroundColor=none;fontColor=#FFFFFF;" parent="1" vertex="1">
          <mxGeometry x="380" y="290" width="110" height="40" as="geometry" />
        </mxCell>
        <mxCell id="O6MyGIacQPo4iYBTRoAR-4" value="Micro Service 1" style="rounded=1;whiteSpace=wrap;html=1;fillColor=#182E3E;strokeColor=#FFFFFF;labelBackgroundColor=none;fontColor=#FFFFFF;" parent="1" vertex="1">
          <mxGeometry x="740" y="170" width="110" height="40" as="geometry" />
        </mxCell>
        <mxCell id="O6MyGIacQPo4iYBTRoAR-5" value="Micro Service 2" style="rounded=1;whiteSpace=wrap;html=1;fillColor=#182E3E;strokeColor=#FFFFFF;labelBackgroundColor=none;fontColor=#FFFFFF;" parent="1" vertex="1">
          <mxGeometry x="740" y="290" width="110" height="40" as="geometry" />
        </mxCell>
        <mxCell id="O6MyGIacQPo4iYBTRoAR-6" value="Micro Service 3" style="rounded=1;whiteSpace=wrap;html=1;fillColor=#182E3E;strokeColor=#FFFFFF;labelBackgroundColor=none;fontColor=#FFFFFF;" parent="1" vertex="1">
          <mxGeometry x="740" y="410" width="110" height="40" as="geometry" />
        </mxCell>
        <mxCell id="O6MyGIacQPo4iYBTRoAR-10" value="&lt;div style=&quot;font-size: 24px;&quot;&gt;&lt;font style=&quot;font-size: 24px;&quot; face=&quot;Lucida Console&quot;&gt;Google &lt;br&gt;&lt;/font&gt;&lt;/div&gt;&lt;div style=&quot;font-size: 24px;&quot;&gt;&lt;font style=&quot;font-size: 24px;&quot; face=&quot;Lucida Console&quot;&gt;Re-Captcha&lt;font style=&quot;font-size: 24px;&quot;&gt;&lt;br&gt;&lt;/font&gt;&lt;/font&gt;&lt;/div&gt;" style="strokeWidth=1;shadow=0;dashed=0;align=center;html=1;shape=mxgraph.mockup.text.captcha;fontColor=#FFFFFF;fontSize=25;strokeColor=#FFFFFF;mainText=;labelBackgroundColor=none;fillColor=#182E3E;" parent="1" vertex="1">
          <mxGeometry x="360" y="440" width="150" height="50" as="geometry" />
        </mxCell>
        <mxCell id="O6MyGIacQPo4iYBTRoAR-17" style="edgeStyle=orthogonalEdgeStyle;rounded=0;orthogonalLoop=1;jettySize=auto;html=1;labelBackgroundColor=none;strokeColor=#23445D;fontColor=default;strokeWidth=3;" parent="1" source="O6MyGIacQPo4iYBTRoAR-15" target="O6MyGIacQPo4iYBTRoAR-16" edge="1">
          <mxGeometry relative="1" as="geometry" />
        </mxCell>
        <mxCell id="O6MyGIacQPo4iYBTRoAR-15" value="" style="html=1;verticalLabelPosition=bottom;align=center;labelBackgroundColor=none;verticalAlign=top;strokeWidth=2;strokeColor=#FFFFFF;shadow=0;dashed=0;shape=mxgraph.ios7.icons.user;fillColor=#182E3E;fontColor=#FFFFFF;" parent="1" vertex="1">
          <mxGeometry x="30" y="189.05" width="30" height="30" as="geometry" />
        </mxCell>
        <mxCell id="O6MyGIacQPo4iYBTRoAR-18" style="edgeStyle=orthogonalEdgeStyle;rounded=0;orthogonalLoop=1;jettySize=auto;html=1;entryX=0;entryY=0.5;entryDx=0;entryDy=0;labelBackgroundColor=none;strokeColor=#23445D;fontColor=default;strokeWidth=3;" parent="1" source="O6MyGIacQPo4iYBTRoAR-16" target="O6MyGIacQPo4iYBTRoAR-2" edge="1">
          <mxGeometry relative="1" as="geometry" />
        </mxCell>
        <mxCell id="O6MyGIacQPo4iYBTRoAR-16" value="" style="sketch=0;pointerEvents=1;shadow=0;dashed=0;html=1;strokeColor=#FFFFFF;fillColor=#182E3E;aspect=fixed;labelPosition=center;verticalLabelPosition=bottom;verticalAlign=top;align=center;outlineConnect=0;shape=mxgraph.vvd.web_browser;labelBackgroundColor=none;fontColor=#FFFFFF;" parent="1" vertex="1">
          <mxGeometry x="165" y="165" width="110" height="78.1" as="geometry" />
        </mxCell>
        <mxCell id="O6MyGIacQPo4iYBTRoAR-20" style="edgeStyle=orthogonalEdgeStyle;rounded=1;orthogonalLoop=1;jettySize=auto;html=1;labelBackgroundColor=none;strokeColor=#23445D;fontColor=default;strokeWidth=3;" parent="1" source="O6MyGIacQPo4iYBTRoAR-19" target="O6MyGIacQPo4iYBTRoAR-16" edge="1">
          <mxGeometry relative="1" as="geometry" />
        </mxCell>
        <mxCell id="O6MyGIacQPo4iYBTRoAR-21" style="edgeStyle=orthogonalEdgeStyle;orthogonalLoop=1;jettySize=auto;html=1;strokeColor=#23445D;entryX=0;entryY=0.5;entryDx=0;entryDy=0;curved=1;strokeWidth=3;" parent="1" source="O6MyGIacQPo4iYBTRoAR-19" target="O6MyGIacQPo4iYBTRoAR-2" edge="1">
          <mxGeometry relative="1" as="geometry">
            <mxPoint x="352" y="407" as="targetPoint" />
          </mxGeometry>
        </mxCell>
        <mxCell id="O6MyGIacQPo4iYBTRoAR-19" value="" style="shape=image;html=1;verticalAlign=top;verticalLabelPosition=bottom;labelBackgroundColor=none;imageAspect=0;aspect=fixed;image=https://cdn1.iconfinder.com/data/icons/DarkGlass_Reworked/128x128/apps/kcron.png;fillColor=#182E3E;strokeColor=#FFFFFF;fontColor=#FFFFFF;" parent="1" vertex="1">
          <mxGeometry x="-11" y="374" width="128" height="128" as="geometry" />
        </mxCell>
      </root>
    </mxGraphModel>
  </diagram>
</mxfile>
